<svg xmlns="http://www.w3.org/2000/svg" fill="none" viewBox="0 0 56 52"><path fill="#071F41" d="M55.993 37.084C54.32 23.666 41.8 21.679 38.267 21.385V9.2c0-.084-.118-8.4-10.267-8.4-10.15 0-10.267 8.316-10.267 8.4v12.186C14.2 21.678 1.685 23.666.007 37.084c0 .019-.007.093-.007.116v3.733c0 .516.418.934.933.934H5.6v1.866H2.8a.933.933 0 0 0-.933.934c0 2.259 1.365 6.533 6.533 6.533s6.533-4.274 6.533-6.534a.933.933 0 0 0-.933-.933h-2.8v-1.866h14v1.866h-2.8a.933.933 0 0 0-.933.934c0 2.259 1.365 6.533 6.533 6.533s6.533-4.274 6.533-6.534a.933.933 0 0 0-.933-.933h-2.8v-1.866h14v1.866H42a.933.933 0 0 0-.933.934c0 2.259 1.365 6.533 6.533 6.533s6.533-4.274 6.533-6.534a.933.933 0 0 0-.933-.933h-2.8v-1.866h4.667a.933.933 0 0 0 .933-.934V37.2c0-.022 0-.094-.007-.116zM19.6 9.2c0-.267.093-6.534 8.4-6.534 8.249 0 8.4 6.27 8.4 6.534v12.133h-1.867v-5.6h-1.866v5.6H19.6V9.2zm-8.773 15.81a21.66 21.66 0 0 1 7.84-1.81h18.666a21.66 21.66 0 0 1 7.84 1.81 14.523 14.523 0 0 1 8.808 11.256H2.02a14.523 14.523 0 0 1 8.808-11.256zM8.4 49.333A4.281 4.281 0 0 1 3.831 45.6h9.133A4.304 4.304 0 0 1 8.4 49.333zm.933-5.6H7.467v-1.866h1.866v1.866zM28 49.333a4.281 4.281 0 0 1-4.569-3.733h9.133A4.304 4.304 0 0 1 28 49.333zm.933-5.6h-1.866v-1.866h1.866v1.866zm18.667 5.6a4.28 4.28 0 0 1-4.573-3.733h9.137a4.304 4.304 0 0 1-4.564 3.733zm.933-5.6h-1.866v-1.866h1.866v1.866zm5.6-3.733H1.867v-1.867h52.266V40z"/></svg>