<svg aria-hidden="true" style="position: absolute; width: 0; height: 0; overflow: hidden;" version="1.1" xmlns="http://www.w3.org/2000/svg" xmlns:xlink="http://www.w3.org/1999/xlink">
<defs>
<symbol id="Алкоголь" viewBox="0 0 28 32">
<path d="M6.742 2.7c-0.227 0-0.413 0.213-0.413 0.474v0.201c0 0.262 0.185 0.475 0.413 0.475 0.229 0 0.413-0.213 0.413-0.474v-0.201c0-0.263-0.185-0.475-0.413-0.475zM5.542 4.281h-0.175c-0.227 0-0.413 0.213-0.413 0.474 0 0.263 0.185 0.475 0.413 0.475h0.175c0.228 0 0.413-0.213 0.413-0.475s-0.185-0.475-0.413-0.475zM6.185 3.444l-0.123-0.142c-0.069-0.085-0.174-0.139-0.292-0.139s-0.222 0.054-0.291 0.138l-0.001 0.001c-0.075 0.090-0.121 0.208-0.121 0.336s0.046 0.246 0.122 0.337l-0.001-0.001 0.123 0.142c0.070 0.084 0.174 0.137 0.291 0.139h0c0.106 0 0.211-0.046 0.292-0.139 0.075-0.090 0.121-0.208 0.121-0.336s-0.046-0.245-0.122-0.337l0.001 0.001zM6.185 5.397c-0.069-0.085-0.174-0.139-0.291-0.139s-0.222 0.054-0.291 0.138l-0.001 0.001-0.124 0.142c-0.075 0.090-0.121 0.208-0.121 0.336s0.046 0.245 0.122 0.337l-0.001-0.001c0.070 0.084 0.174 0.138 0.291 0.139h0c0.106 0 0.211-0.047 0.292-0.139l0.123-0.142c0.075-0.090 0.121-0.208 0.121-0.336s-0.046-0.245-0.122-0.337l0.001 0.001z"></path>
<path d="M24.749 3.916h-13.939c-0.158-1.015-0.598-1.946-1.265-2.654-0.766-0.814-1.761-1.262-2.803-1.262-2.279 0-4.133 2.134-4.133 4.756s1.854 4.756 4.133 4.756c0.419 0 0.83-0.073 1.227-0.215 0.622 0.675 1.392 1.18 2.262 1.44 0.562 0.169 0.989 0.702 1.088 1.36l0.525 3.496c0.185 1.235 0.783 2.306 1.682 3.015 0.682 0.537 1.089 1.414 1.089 2.345v7.125c-0.314 0.229-0.516 0.633-0.516 1.078l0.001 0.040c-1.031 0.243-1.88 0.466-2.525 0.665-0.439 0.135-0.77 0.254-1.013 0.363-0.226 0.103-0.646 0.293-0.646 0.736 0 0.594 0.671 0.696 1.211 0.778 0.464 0.070 1.107 0.129 1.91 0.174 1.357 0.077 2.733 0.089 2.746 0.089h0.006c0.014 0 1.389-0.013 2.746-0.089 0.803-0.045 1.446-0.103 1.91-0.174 0.54-0.082 1.212-0.183 1.212-0.778 0-0.47-0.377-0.713-1.754-1.129-0.834-0.251-1.874-0.506-2.62-0.68 0-0.003 0-0.008 0-0.012 0-0.339-0.123-0.649-0.327-0.888l0.002 0.002v-7.301c0-0.93 0.407-1.807 1.089-2.345 0.899-0.709 1.497-1.78 1.682-3.015l0.525-3.496c0.098-0.658 0.526-1.191 1.087-1.36 1.885-0.564 3.303-2.274 3.751-4.381l0.005-0.024c0.094-0.453 0.145-0.924 0.145-1.406v-0.443c0-0.313-0.221-0.567-0.491-0.567zM6.742 8.562c-1.824 0-3.307-1.707-3.307-3.806s1.483-3.806 3.307-3.806c0.834 0 1.631 0.358 2.243 1.009 0.497 0.529 0.837 1.21 0.983 1.957h-0.423c-0.327-1.447-1.473-2.494-2.803-2.494-1.598 0-2.897 1.496-2.897 3.334s1.3 3.334 2.897 3.334c0.126-0 0.25-0.010 0.371-0.028l-0.014 0.002c0.079 0.149 0.164 0.293 0.254 0.433-0.183 0.041-0.394 0.065-0.61 0.065-0 0-0.001 0-0.001 0h0zM8.006 3.303c-0.069-0.085-0.174-0.139-0.292-0.139s-0.222 0.054-0.291 0.138l-0.001 0.001-0.123 0.142c-0.076 0.090-0.122 0.208-0.122 0.336 0 0.048 0.006 0.095 0.019 0.139l-0.001-0.004h-0.373c-0.271 0-0.493 0.254-0.493 0.567v0.443c0 0.482 0.051 0.952 0.146 1.406 0.067 0.321 0.143 0.591 0.236 0.854l-0.014-0.047c-1.122-0.029-2.027-1.086-2.027-2.383 0-1.315 0.93-2.385 2.072-2.385 0.877 0 1.642 0.635 1.939 1.545h-0.634c0.050-0.079 0.079-0.175 0.079-0.278 0-0.128-0.045-0.245-0.121-0.337l0.001 0.001zM17.058 30.069c1.451 0.336 2.362 0.59 2.931 0.774-1.042 0.118-2.714 0.195-4.205 0.208-1.489-0.013-3.161-0.090-4.204-0.208 0.545-0.176 1.402-0.417 2.745-0.731 0.371-0.086 0.629-0.487 0.598-0.93-0.001-0.008-0.001-0.016-0.001-0.026v-0c0-0.147 0.087-0.277 0.21-0.315 0.181-0.055 0.306-0.243 0.306-0.459v-7.43c0-0.625-0.137-1.231-0.388-1.77 0.231 0.017 0.482 0.026 0.734 0.026s0.504-0.009 0.735-0.026c-0.245 0.517-0.388 1.124-0.388 1.764 0 0.002 0 0.005 0 0.007v-0 7.526c0 0.162 0.073 0.314 0.193 0.401 0.082 0.063 0.134 0.16 0.134 0.27 0 0.010-0 0.019-0.001 0.029l0-0.001c-0.024 0.423 0.234 0.806 0.601 0.891zM24.416 4.926c0 0.286-0.021 0.566-0.061 0.84h-12.422c-0.227 0-0.413 0.213-0.413 0.475s0.185 0.474 0.413 0.474h12.198c-0.494 1.499-1.591 2.681-2.999 3.102-0.875 0.262-1.539 1.093-1.693 2.118l-0.525 3.495c-0.147 0.981-0.621 1.83-1.335 2.393-0.111 0.087-0.44 0.291-0.499 0.322-0.327 0.148-2.261 0.148-2.59 0-0.060-0.030-0.389-0.234-0.5-0.322-0.714-0.563-1.188-1.413-1.335-2.393l-0.525-3.495c-0.154-1.025-0.818-1.855-1.693-2.118-0.797-0.238-1.494-0.72-2.038-1.365-0.412-0.49-0.739-1.068-0.949-1.7l-0.011-0.037h2.574c0.227 0 0.413-0.212 0.413-0.474s-0.185-0.475-0.413-0.475h-2.798c-0.040-0.274-0.061-0.555-0.061-0.841v-0.061h17.263v0.061z"></path>
</symbol>
<symbol id="Всё для дома" viewBox="0 0 32 32">
<path d="M30.414 11.952h-0.636v-2.363c-0.002-1.398-1.135-2.532-2.533-2.533h-9.181c-0.849 0-1.6 0.419-2.059 1.060l-0.005 0.008c-0.464-0.649-1.216-1.067-2.065-1.067h-5.767c-0.259 0-0.469 0.21-0.469 0.469s0.21 0.469 0.469 0.469v0h5.767c0.881 0.001 1.595 0.715 1.596 1.596v4.688c-0.010-0.010-0.021-0.018-0.030-0.027-0.542-0.503-1.268-0.813-2.068-0.817h-7.809c-0.050-0.644-0.473-1.178-1.052-1.389l-0.011-0.004c-0.154-0.056-0.331-0.088-0.516-0.088-0.001 0-0.003 0-0.004 0h-0.881v-2.363c0.001-0.881 0.715-1.595 1.595-1.596h1.538c0.259 0 0.469-0.21 0.469-0.469s-0.21-0.469-0.469-0.469v0h-1.539c-1.398 0.002-2.532 1.135-2.533 2.533v2.363h-0.635c-0.875 0.001-1.584 0.71-1.586 1.586v4.894c0.002 1.823 1.48 3.301 3.303 3.303h0.236l-0.514 1.382c-0.323 0.871 0.343 1.827 1.27 1.827h0.754c0.422 0 0.826-0.201 1.081-0.537l2.021-2.672h15.699l2.021 2.671c0.254 0.337 0.658 0.538 1.081 0.538h0.754c0.929 0 1.594-0.957 1.27-1.827l-0.514-1.382h0.236c1.823-0.002 3.301-1.48 3.303-3.303v-4.894c-0.001-0.875-0.71-1.584-1.586-1.586h-0zM16.469 9.589c0.001-0.881 0.715-1.595 1.596-1.596h9.181c0.881 0.001 1.594 0.715 1.595 1.596v2.363h-0.882c-0.623 0-1.221 0.4-1.463 0.974-0.068 0.161-0.109 0.333-0.12 0.507h-7.807c-0.815 0.005-1.553 0.325-2.101 0.845l0.001-0.001v-4.688zM5.629 14.37h7.804c1.159 0.001 2.098 0.94 2.099 2.099v0.666h-9.904v-2.766zM5.383 23.841c-0.077 0.101-0.198 0.165-0.333 0.166h-0.754c-0.23-0.003-0.416-0.19-0.416-0.421 0-0.051 0.009-0.1 0.026-0.145l-0.001 0.003 0.635-1.709h2.437l-1.593 2.106zM27.706 24.006h-0.754c-0.136-0-0.256-0.065-0.332-0.165l-0.001-0.001-1.593-2.106h2.437l0.635 1.709c0.015 0.042 0.024 0.091 0.024 0.141 0 0.231-0.185 0.418-0.415 0.422h-0zM28.698 20.797h-25.395c-1.306-0.001-2.364-1.059-2.366-2.365v-4.894c0-0.358 0.291-0.649 0.649-0.649h2.456c0.358 0 0.649 0.291 0.649 0.649v4.067c0 0.259 0.21 0.469 0.469 0.469h17.217c0.259 0 0.469-0.21 0.469-0.469s-0.21-0.469-0.469-0.469v0h-5.907v-0.667c0.001-1.159 0.94-2.098 2.099-2.099h7.805v2.766h-2.121c-0.259 0-0.469 0.21-0.469 0.469s0.21 0.469 0.469 0.469v0h2.59c0.259 0 0.469-0.21 0.469-0.469v0-4.067c0-0.358 0.291-0.649 0.649-0.649h2.455c0.358 0 0.649 0.291 0.649 0.649v4.894c-0.001 1.306-1.059 2.364-2.365 2.366h-0z"></path>
</symbol>
<symbol id="Здоровье" viewBox="0 0 29 32">
<path d="M28.691 17.829l-0.509-8.305c-0.033-0.538-0.251-1.029-0.615-1.383-0.363-0.353-0.829-0.526-1.309-0.487-0.944 0.077-1.676 0.967-1.666 2.027l0.060 6.77-2.619 3.757c-0.418 0.6-1.111 0.84-1.741 0.659l2.849-4.144c0.5-0.727 0.417-1.781-0.189-2.399-0.323-0.33-0.742-0.493-1.179-0.458s-0.831 0.261-1.11 0.638l-4.305 5.806c-0.71 0.957-1.095 2.17-1.084 3.414l0.067 7.71c0.003 0.307 0.226 0.555 0.5 0.555l7.167 0.011c0.141 0 0.274-0.066 0.369-0.182s0.142-0.271 0.13-0.427l-0.293-3.774 4.758-7.082c0.521-0.776 0.776-1.737 0.717-2.706zM27.174 19.861l-4.873 7.254c-0.074 0.111-0.11 0.248-0.099 0.386l0.262 3.378-6.125-0.009-0.062-7.155c-0.009-0.979 0.294-1.934 0.853-2.687l4.304-5.806c0.094-0.131 0.24-0.22 0.408-0.235l0.002-0c0.012-0.001 0.026-0.002 0.040-0.002 0.156 0 0.296 0.065 0.395 0.17l0 0c0.223 0.228 0.254 0.617 0.070 0.885l-3.234 4.703c-0.065 0.096-0.104 0.214-0.104 0.341 0 0.033 0.003 0.065 0.007 0.096l-0-0.003c0.023 0.154 0.102 0.29 0.217 0.375 1.157 0.859 2.733 0.573 3.588-0.653l2.726-3.911c0.067-0.096 0.106-0.215 0.106-0.343 0-0.003-0-0.006-0-0.008v0l-0.062-6.967c-0.004-0.469 0.32-0.863 0.738-0.897 0.017-0.001 0.037-0.002 0.056-0.002 0.204 0 0.389 0.083 0.523 0.218l0 0c0.161 0.157 0.258 0.374 0.273 0.612l0.509 8.305c0.043 0.701-0.141 1.394-0.518 1.955zM8.357 14.503c-0.28-0.377-0.674-0.603-1.11-0.638s-0.855 0.129-1.179 0.459c-0.606 0.618-0.689 1.671-0.189 2.399l2.849 4.144c-0.629 0.181-1.323-0.060-1.741-0.659l-2.619-3.757 0.060-6.77c0.009-1.060-0.723-1.951-1.666-2.027-0.48-0.039-0.945 0.134-1.309 0.487s-0.582 0.845-0.615 1.383l-0.508 8.305c-0.059 0.969 0.195 1.93 0.717 2.706l4.758 7.082-0.293 3.774c-0.012 0.157 0.035 0.312 0.13 0.427s0.229 0.182 0.369 0.182h0.001l7.167-0.011c0.274 0 0.497-0.247 0.5-0.555l0.067-7.71c0.011-1.245-0.374-2.457-1.084-3.415l-4.304-5.806zM12.681 30.868l-6.125 0.010 0.262-3.378c0.001-0.015 0.002-0.032 0.002-0.050 0-0.125-0.038-0.241-0.102-0.338l0.001 0.002-4.873-7.254c-0.377-0.561-0.56-1.255-0.518-1.955l0.509-8.305c0.015-0.238 0.111-0.455 0.273-0.612 0.134-0.135 0.32-0.218 0.526-0.218 0.019 0 0.037 0.001 0.056 0.002l-0.002-0c0.418 0.034 0.742 0.429 0.738 0.898l-0.062 6.967c-0.001 0.127 0.037 0.25 0.106 0.351l2.726 3.911c0.855 1.226 2.43 1.513 3.587 0.653 0.116-0.090 0.196-0.222 0.217-0.372l0-0.003c0.004-0.028 0.007-0.060 0.007-0.093 0-0.127-0.039-0.246-0.106-0.344l0.001 0.002-3.233-4.703c-0.185-0.268-0.154-0.657 0.070-0.885 0.099-0.105 0.24-0.171 0.396-0.171 0.014 0 0.028 0.001 0.041 0.002l-0.002-0c0.17 0.015 0.316 0.104 0.409 0.234l0.001 0.002 4.304 5.806c0.559 0.754 0.862 1.708 0.853 2.687l-0.062 7.155zM24.319 6.31c0-1.686-0.586-3.27-1.65-4.462-1.064-1.191-2.479-1.848-3.984-1.848s-2.92 0.657-3.984 1.848l-0.19 0.214-0.19-0.214c-1.065-1.191-2.48-1.848-3.984-1.848-1.505 0-2.92 0.657-3.984 1.848-2.197 2.461-2.197 6.464 0 8.924l7.804 8.741c0.086 0.1 0.213 0.163 0.354 0.164h0c0.141-0.001 0.268-0.064 0.354-0.163l0.001-0.001 7.804-8.742c1.064-1.191 1.65-2.776 1.65-4.462zM14.51 18.323l-7.45-8.345c-1.806-2.023-1.806-5.314 0-7.337 0.875-0.981 2.038-1.52 3.276-1.52s2.401 0.539 3.275 1.52l0.545 0.609c0.086 0.1 0.213 0.163 0.354 0.165h0c0.141-0.002 0.268-0.065 0.354-0.164l0.001-0.001 0.544-0.61c0.875-0.98 2.039-1.52 3.276-1.52s2.401 0.54 3.276 1.52 1.357 2.283 1.357 3.669c0 1.386-0.482 2.69-1.357 3.67l-7.45 8.344z"></path>
</symbol>
<symbol id="Коммуналка и связь" viewBox="0 0 32 32">
<path d="M30.679 0h-29.358c-0.451 0-0.819 0.369-0.819 0.819s0.369 0.819 0.819 0.819h1.768v29.521c0 0.301 0.164 0.581 0.43 0.724s0.587 0.13 0.84-0.041l3.557-2.369 3.57 2.376c0.127 0.087 0.285 0.138 0.454 0.138s0.327-0.052 0.457-0.14l-0.003 0.002 3.557-2.369 3.571 2.376c0.127 0.086 0.285 0.138 0.454 0.138s0.326-0.052 0.457-0.14l-0.003 0.002 3.557-2.369 3.571 2.376c0.137 0.089 0.294 0.137 0.45 0.137 0.13 0 0.266-0.034 0.389-0.095 0.266-0.143 0.43-0.423 0.43-0.724l-0.014-29.522h1.864c0.451 0 0.819-0.369 0.819-0.819s-0.369-0.84-0.819-0.84zM27.197 29.631l-2.751-1.83c-0.128-0.087-0.285-0.138-0.454-0.138s-0.327 0.052-0.457 0.14l0.003-0.002-3.557 2.376-3.571-2.376c-0.127-0.086-0.285-0.138-0.454-0.138s-0.326 0.052-0.457 0.14l0.003-0.002-3.557 2.369-3.571-2.369c-0.127-0.087-0.285-0.138-0.454-0.138s-0.327 0.052-0.457 0.14l0.003-0.002-2.738 1.823v-27.992h22.462l0.007 27.999z"></path>
<path d="M8.497 13.081h8.582c0.45 0 0.819-0.369 0.819-0.819s-0.369-0.819-0.819-0.819h-8.582c-0.45 0-0.819 0.369-0.819 0.819 0 0.001 0 0.001 0 0.002 0 0.451 0.366 0.817 0.817 0.817 0.001 0 0.002 0 0.002 0h-0zM8.497 15.929h6.431c0.451 0 0.819-0.369 0.819-0.819s-0.369-0.819-0.819-0.819h-6.431c-0.45 0-0.819 0.369-0.819 0.819 0 0.001 0 0.001 0 0.002 0 0.451 0.366 0.817 0.817 0.817 0.001 0 0.002 0 0.002 0h-0zM21.366 13.081h2.144c0.45 0 0.819-0.369 0.819-0.819s-0.369-0.819-0.819-0.819h-2.145c-0.45 0-0.819 0.369-0.819 0.819 0 0.001 0 0.001 0 0.002 0 0.451 0.366 0.817 0.817 0.817 0.001 0 0.002 0 0.002 0h-0zM21.366 15.929h2.144c0.45 0 0.819-0.369 0.819-0.819s-0.369-0.819-0.819-0.819h-2.145c-0.45 0-0.819 0.369-0.819 0.819 0 0.001 0 0.001 0 0.002 0 0.451 0.366 0.817 0.817 0.817 0.001 0 0.002 0 0.002 0h-0zM8.497 6.506h8.582c0.45 0 0.819-0.369 0.819-0.819s-0.369-0.819-0.819-0.819h-8.582c-0.45 0-0.819 0.369-0.819 0.819 0 0.001 0 0.001 0 0.002 0 0.451 0.366 0.817 0.817 0.817 0.001 0 0.002 0 0.002 0h-0zM8.497 9.347h6.431c0.451 0 0.819-0.369 0.819-0.819s-0.369-0.819-0.819-0.819h-6.431c-0.45 0-0.819 0.369-0.819 0.819 0 0.001 0 0.001 0 0.002 0 0.451 0.366 0.817 0.817 0.817 0.001 0 0.002 0 0.002 0h-0zM21.366 6.506h2.144c0.45 0 0.819-0.369 0.819-0.819s-0.369-0.819-0.819-0.819h-2.145c-0.45 0-0.819 0.369-0.819 0.819 0 0.001 0 0.001 0 0.002 0 0.451 0.366 0.817 0.817 0.817 0.001 0 0.002 0 0.002 0h-0zM21.366 9.347h2.144c0.45 0 0.819-0.369 0.819-0.819s-0.369-0.819-0.819-0.819h-2.145c-0.45 0-0.819 0.369-0.819 0.819 0 0.001 0 0.001 0 0.002 0 0.451 0.366 0.817 0.817 0.817 0.001 0 0.002 0 0.002 0h-0zM8.497 19.738h8.582c0.45 0 0.819-0.369 0.819-0.819s-0.369-0.819-0.819-0.819h-8.582c-0.45 0-0.819 0.369-0.819 0.819 0 0 0 0.001 0 0.002 0 0.451 0.366 0.817 0.817 0.817 0.001 0 0.002 0 0.002 0h-0zM8.497 22.578h6.431c0.451 0 0.819-0.369 0.819-0.819s-0.369-0.819-0.819-0.819h-6.431c-0.45 0-0.819 0.369-0.819 0.819 0 0.001 0 0.001 0 0.002 0 0.451 0.366 0.817 0.817 0.817 0.001 0 0.002 0 0.002 0h-0zM21.366 19.738h2.144c0.45 0 0.819-0.369 0.819-0.819s-0.369-0.819-0.819-0.819h-2.145c-0.45 0-0.819 0.369-0.819 0.819 0 0 0 0.001 0 0.002 0 0.451 0.366 0.817 0.817 0.817 0.001 0 0.002 0 0.002 0h-0zM21.366 22.578h2.144c0.45 0 0.819-0.369 0.819-0.819s-0.369-0.819-0.819-0.819h-2.145c-0.45 0-0.819 0.369-0.819 0.819 0 0.001 0 0.001 0 0.002 0 0.451 0.366 0.817 0.817 0.817 0.001 0 0.002 0 0.002 0h-0z"></path>
</symbol>
<symbol id="Образование" viewBox="0 0 32 32">
<path d="M31.379 6.431h-2.109v-0.72c0-0.007 0-0.016 0-0.024 0-0.281-0.187-0.518-0.443-0.595l-0.004-0.001c-1.329-0.363-2.855-0.571-4.43-0.571-0.015 0-0.030 0-0.044 0h0.002c-2.481 0-5.862 0.558-8.361 3.102-2.481-2.568-5.887-3.102-8.362-3.102-0.013-0-0.027-0-0.042-0-1.575 0-3.101 0.208-4.552 0.599l0.122-0.028c-0.274 0.080-0.458 0.335-0.446 0.62v0.714h-2.090c-0.342 0.001-0.62 0.278-0.62 0.621v19.812c0.001 0.342 0.278 0.619 0.621 0.619 0.111 0 0.216-0.029 0.306-0.081l-0.003 0.002c0.062-0.031 6.265-3.424 14.924-1.241h0.149c0.049 0.006 0.099 0.006 0.149 0 8.684-2.202 14.887 1.185 14.924 1.24 0.089 0.052 0.196 0.083 0.31 0.083 0.341 0 0.618-0.276 0.621-0.616v-19.812c0-0.343-0.278-0.62-0.621-0.62zM1.241 25.87v-18.199h1.482v15.557c-0 0.002-0 0.005-0 0.007 0 0.343 0.278 0.621 0.621 0.621 0.033 0 0.065-0.003 0.097-0.008l-0.003 0c1.157-0.186 2.499-0.299 3.865-0.31l0.012-0c1.798-0.031 3.589 0.239 5.297 0.8-0.822-0.105-1.774-0.165-2.739-0.165-3.112 0-6.079 0.623-8.782 1.752l0.151-0.056zM7.313 22.304c-1.192 0.003-2.363 0.082-3.512 0.232l0.138-0.015v-16.32c1.104-0.257 2.373-0.406 3.676-0.409h0.002c2.32 0 5.52 0.534 7.741 3.040l0.019 15.451c-1.29-0.844-3.809-1.979-8.063-1.979zM16.617 8.831c2.221-2.481 5.421-3.039 7.741-3.039 1.237 0.004 2.47 0.141 3.678 0.41v16.319c-1.003-0.136-2.167-0.217-3.349-0.223l-0.007-0c-4.23 0-6.754 1.135-8.063 1.978v-15.445zM30.753 25.871c-2.555-1.075-5.524-1.7-8.639-1.7-0.971 0-1.928 0.061-2.867 0.178l0.112-0.011c1.5-0.509 3.228-0.803 5.025-0.803 0.104 0 0.209 0.001 0.313 0.003l-0.016-0c1.306 0.007 2.61 0.109 3.902 0.304 0.028 0.004 0.060 0.007 0.093 0.007 0.343 0 0.621-0.278 0.621-0.621 0-0.002 0-0.004-0-0.007v0-15.551h1.483l-0.025 18.199z"></path>
</symbol>
<symbol id="Продукты" viewBox="0 0 33 32">
<path fill="#f5f6fb" style="fill: var(--color1, #f5f6fb)" d="M12.273 4.787h6.242c5.438 0 9.846 4.408 9.846 9.846v2.954c0 5.438-4.408 9.846-9.846 9.846h-6.242c-5.438 0-9.846-4.408-9.846-9.846v-2.954c0-5.438 4.408-9.846 9.846-9.846z"></path>
<path fill="#071f41" style="fill: var(--color2, #071f41)" d="M14.013 10.433c-0.233-0.286-0.565-0.453-0.911-0.459-0.696-0.010-1.271 0.611-1.283 1.389-0.004 0.251 0.175 0.458 0.399 0.462h0.007c0.221 0 0.402-0.198 0.406-0.447 0.004-0.278 0.208-0.501 0.458-0.496 0.132 0.003 0.248 0.066 0.324 0.163l0.001 0.001c0.069 0.091 0.178 0.149 0.299 0.149 0.108 0 0.206-0.046 0.274-0.119l0-0c0.165-0.17 0.177-0.457 0.026-0.642zM16.171 11.914c-0.125-0.327-0.366-0.586-0.665-0.709-0.599-0.247-1.266 0.097-1.488 0.767-0.078 0.235 0.030 0.497 0.239 0.584 0.047 0.020 0.094 0.029 0.141 0.029 0.164 0 0.319-0.113 0.38-0.296 0.067-0.201 0.267-0.304 0.447-0.23 0.093 0.041 0.164 0.116 0.198 0.209l0.001 0.003c0.088 0.231 0.326 0.339 0.532 0.24s0.302-0.364 0.215-0.596zM18.785 7.89c-0.069-0.082-0.172-0.133-0.287-0.133s-0.218 0.052-0.287 0.133l-0 0.001-0.382 0.429c-0.159 0.177-0.158 0.465 0 0.642 0.080 0.089 0.183 0.133 0.287 0.133 0.115-0.001 0.217-0.052 0.287-0.133l0-0.001 0.383-0.429c0.158-0.177 0.158-0.465-0-0.642zM16.261 13.755h-0.541c-0.224 0-0.406 0.204-0.406 0.454s0.182 0.454 0.406 0.454h0.541c0.224 0 0.406-0.203 0.406-0.454s-0.181-0.454-0.406-0.454zM20.407 13.755h-0.541c-0.224 0-0.406 0.204-0.406 0.454s0.182 0.454 0.406 0.454h0.541c0.224 0 0.406-0.203 0.406-0.454s-0.182-0.454-0.406-0.454z"></path>
<path fill="#071f41" style="fill: var(--color2, #071f41)" d="M30.985 21.947l-0.106-0.639c-0.067-0.408-0.385-0.704-0.756-0.704-0.047 0-0.094 0.005-0.14 0.014l-2.15 0.443 0.974-0.73c0.255-0.191 0.384-0.533 0.328-0.871-0.017-0.1-0.047-0.189-0.089-0.271l0.002 0.005-0.295-0.584c-0.096-0.194-0.263-0.341-0.467-0.408l-0.006-0.002c-0.059-0.018-0.127-0.029-0.197-0.029-0.036 0-0.071 0.003-0.105 0.008l0.004-0c0.108-0.67 0.164-1.355 0.164-2.052 0-0.309-0.166-0.575-0.403-0.693 0.154-0.402 0.244-0.867 0.244-1.352 0-0.46-0.080-0.902-0.228-1.311l0.009 0.027c-0.025-0.072-0.063-0.134-0.11-0.188l0 0.001c-0.045-0.051-0.101-0.092-0.163-0.121l-0.003-0.001c-0.338-0.156-0.733-0.247-1.149-0.247-0.052 0-0.104 0.001-0.156 0.004l0.007-0c-0.056-1.268-0.993-2.28-2.137-2.28-0.151 0-0.298 0.018-0.44 0.051 0.029-0.186 0.046-0.401 0.046-0.619 0-0.495-0.086-0.969-0.244-1.409l0.009 0.029c-0.026-0.074-0.064-0.138-0.113-0.193l0 0.001c-0.046-0.052-0.102-0.094-0.165-0.123l-0.003-0.001c-0.363-0.168-0.788-0.265-1.235-0.266h-0c-0.668 0.002-1.285 0.217-1.787 0.582l0.009-0.006c-0.205-0.663-0.532-1.235-0.959-1.717l0.004 0.005c-0.119-0.138-0.293-0.225-0.487-0.226h-0c-0.195 0.002-0.369 0.089-0.487 0.226l-0.001 0.001-1.964 2.205c-0.363-0.363-0.842-0.58-1.361-0.58-0.118 0-0.236 0.011-0.353 0.034-0.423 0.082-0.812 0.314-1.111 0.654-0.258-0.143-0.566-0.228-0.893-0.228-0.124 0-0.244 0.012-0.361 0.035l0.012-0.002c-0.105 0.021-0.195 0.046-0.283 0.078l0.013-0.004v-1.698c0-1.17-0.84-2.123-1.878-2.143v-0.963c0.318-0.062 0.561-0.372 0.561-0.745v-2.183c0-0.417-0.304-0.757-0.676-0.757h-3.298c-0.373 0-0.676 0.34-0.676 0.757v2.183c0 0.373 0.243 0.683 0.56 0.745v0.963c-1.039 0.020-1.878 0.974-1.878 2.144v13.26c-0.812 0.826-1.314 1.959-1.314 3.21 0 0.006 0 0.012 0 0.017v-0.001c0 2.486 1.949 4.51 4.344 4.51l16.236-0.005c0.554 0 1.075-0.273 1.43-0.748 0.345-0.463 0.492-1.063 0.407-1.656l3.243 0.652c0.041 0.008 0.087 0.013 0.135 0.013 0.171 0 0.328-0.060 0.451-0.161l-0.001 0.001c0.168-0.134 0.283-0.344 0.313-0.573l0.088-0.66c0.006-0.039 0.009-0.083 0.009-0.128 0-0.055-0.005-0.108-0.013-0.16l0.001 0.006c-0.056-0.338-0.286-0.606-0.585-0.682l-1.143-0.293 2.148-0.442c0.212-0.047 0.388-0.178 0.493-0.355l0.002-0.003c0.116-0.189 0.16-0.418 0.123-0.644zM26.347 13.151c0.244 0 0.484 0.043 0.715 0.129 0.073 0.24 0.115 0.515 0.115 0.8 0 0.47-0.114 0.914-0.316 1.305l0.007-0.016h-1.093l0.349-0.391c0.159-0.177 0.158-0.465-0-0.642-0.069-0.081-0.172-0.133-0.287-0.133s-0.218 0.052-0.287 0.133l-0 0.001-0.185 0.207c-0.088-0.324-0.238-0.605-0.439-0.842l0.003 0.003c0.403-0.358 0.897-0.553 1.418-0.553zM24.060 10.875c0.733 0 1.329 0.67 1.329 1.492l-0.001 0.045c-0.456 0.172-0.843 0.435-1.156 0.768l-0.002 0.002c-0.042-0.019-0.096-0.040-0.151-0.058l-0.012-0.003c-0.119-0.718-0.55-1.293-1.121-1.562 0.237-0.411 0.648-0.684 1.115-0.684zM21.916 8.344c0.276 0 0.546 0.050 0.807 0.149 0.084 0.271 0.133 0.583 0.133 0.907 0 0.43-0.086 0.839-0.241 1.213l0.008-0.021c-0.219 0.225-0.395 0.493-0.514 0.791l-0.006 0.016c-0.072 0.005-0.145 0.014-0.217 0.028-0.336 0.070-0.628 0.225-0.863 0.442l0.001-0.001c-0.090-0.182-0.192-0.339-0.31-0.482l0.003 0.004 0.93-1.044c0.158-0.178 0.158-0.466-0.001-0.642-0.069-0.082-0.172-0.133-0.287-0.133s-0.218 0.052-0.287 0.133l-0 0.001-1.017 1.141c-0.18-0.098-0.389-0.17-0.611-0.205l-0.011-0.001c0.097-0.566 0.343-1.064 0.696-1.464l-0.003 0.003c0.478-0.537 1.113-0.832 1.789-0.832zM18.807 15.369h-0.352c-0.059-0.169-0.206-0.289-0.378-0.289s-0.318 0.12-0.377 0.288h-0.414c0.038-0.068 0.060-0.15 0.060-0.236 0-0.123-0.045-0.236-0.12-0.323l0.001 0.001c-0.069-0.081-0.172-0.133-0.287-0.133s-0.218 0.052-0.287 0.133l-0 0.001-0.383 0.429c-0.033 0.037-0.060 0.079-0.079 0.126l-0.001 0.003h-0.826c-0.309-0.526-0.5-1.156-0.52-1.827l-0-0.006h6.435c-0.021 0.678-0.211 1.307-0.53 1.852l0.010-0.018h-0.86c-0.020-0.050-0.047-0.092-0.080-0.129l0 0.001-0.383-0.429c-0.069-0.082-0.172-0.133-0.287-0.133s-0.217 0.051-0.286 0.132l-0 0.001c-0.136 0.152-0.155 0.384-0.059 0.559zM17.864 12.627c0.153-0.635 0.67-1.103 1.282-1.103s1.129 0.468 1.282 1.103h-2.565zM18.693 7.040c0.366 0.446 0.634 0.987 0.762 1.58l0.004 0.025c-0.197 0.239-0.369 0.511-0.505 0.804l-0.010 0.023c-0.059-0.042-0.132-0.067-0.212-0.067h-0.54c-0.224 0-0.406 0.203-0.406 0.454s0.182 0.454 0.406 0.454h0.474c-0.023 0.1-0.045 0.229-0.061 0.36l-0.002 0.020c-0.161 0.047-0.315 0.115-0.459 0.2-0.271-0.522-0.718-0.912-1.248-1.068l-0-0.003c-0.034-0.218-0.091-0.414-0.169-0.598l0.006 0.016 1.959-2.201zM11.36 11.139c-0.021-0.063-0.040-0.14-0.053-0.219l-0.001-0.009c-0.116-0.751 0.336-1.469 1.008-1.6 0.071-0.014 0.143-0.021 0.214-0.021 0.283 0.002 0.541 0.106 0.74 0.277l-0.001-0.001c0.090 0.075 0.202 0.105 0.312 0.084 0.116-0.025 0.212-0.097 0.268-0.195l0.001-0.002c0.191-0.321 0.482-0.535 0.82-0.601 0.071-0.014 0.143-0.021 0.215-0.021 0.601 0 1.112 0.481 1.215 1.145 0.012 0.076 0.018 0.156 0.018 0.236 0 0.235 0.161 0.431 0.37 0.451 0.454 0.045 0.84 0.364 1.019 0.815-0.239 0.321-0.405 0.71-0.468 1.133l-0.002 0.014h-2.313c-0.287 0-0.535 0.199-0.638 0.48-0.475-0.371-1.080-0.596-1.737-0.598h-0c-0.394 0-0.779 0.083-1.147 0.247-0.065 0.030-0.12 0.071-0.165 0.122l-0 0.001c-0.048 0.054-0.085 0.117-0.109 0.186-0.085 0.233-0.152 0.506-0.187 0.789l-0.002 0.019c-0.146-0.188-0.249-0.416-0.287-0.666l-0.001-0.008c-0.095-0.616 0.193-1.23 0.701-1.492 0.191-0.098 0.283-0.344 0.212-0.566zM12.569 15.244l0.111 0.124h-0.975c-0.119-0.303-0.188-0.654-0.188-1.021 0-0.285 0.042-0.561 0.12-0.821l-0.005 0.020c0.212-0.082 0.458-0.129 0.715-0.129h0c0.611 0 1.186 0.267 1.619 0.753 0.058 0.065 0.111 0.132 0.161 0.202 0.069 0.349 0.174 0.681 0.31 0.995h-0.611l-0.682-0.766c-0.069-0.082-0.172-0.134-0.287-0.134s-0.217 0.051-0.286 0.133l-0 0.001c-0.159 0.177-0.159 0.465-0.001 0.642zM10.842 15.368h-1.446c0.064-0.44 0.3-0.815 0.629-1.036 0.189 0.285 0.438 0.517 0.729 0.681l0.011 0.005c0.021 0.118 0.046 0.235 0.077 0.35zM6.748 0.909h3.029v1.88h-3.029v-1.881zM9.216 3.697v0.95h-1.907v-0.95h1.907zM5.431 8.635h2.634c0.224 0 0.406-0.204 0.406-0.455s-0.182-0.454-0.406-0.454h-2.634v-0.934c0-0.682 0.493-1.236 1.1-1.236h3.463c0.607 0 1.1 0.554 1.1 1.236v0.934h-0.758c-0.224 0-0.406 0.203-0.406 0.454s0.182 0.454 0.406 0.454h0.758v0.404c-0.465 0.51-0.706 1.258-0.587 2.028l0.001 0.005c-0.651 0.5-0.997 1.389-0.86 2.281 0.008 0.052 0.018 0.103 0.030 0.154-0.209 0.132-0.388 0.29-0.538 0.472l-0.003 0.004h-3.706v-5.347zM5.431 14.891h3.234c-0.043 0.153-0.073 0.313-0.088 0.478h-0.068c-0.374 0-0.677 0.34-0.677 0.759 0 0.721 0.060 1.43 0.176 2.122-0.106-0.010-0.23-0.016-0.354-0.016-0.001 0-0.002 0-0.003 0h0c-0.491 0-0.958 0.087-1.316 0.245-0.548 0.242-0.699 0.586-0.732 0.824-0.078 0.044-0.135 0.077-0.19 0.112l0.018-0.011v-4.512zM10.567 20.473c0.146 0.131 0.235 0.242 0.287 0.322h-0.015c-0.23 0-0.642-0.103-1.111-0.394-0.175-0.108-0.328-0.225-0.467-0.356l0.002 0.002c-0.067-0.067-0.16-0.108-0.262-0.108s-0.195 0.041-0.262 0.108l0-0c-0.13 0.123-0.29 0.246-0.465 0.354-0.469 0.29-0.881 0.394-1.111 0.394h-0.015c0.083-0.122 0.178-0.228 0.284-0.321l0.002-0.002c0.094-0.089 0.153-0.215 0.153-0.355 0-0.045-0.006-0.088-0.017-0.129l0.001 0.003c-0.045-0.176-0.181-0.305-0.343-0.326-0.396-0.052-0.646-0.165-0.763-0.247 0.147-0.102 0.518-0.277 1.186-0.277 0.553 0 0.957 0.13 1.151 0.253 0.124 0.077 0.274 0.077 0.397 0 0.194-0.122 0.599-0.253 1.152-0.253 0.668 0 1.039 0.175 1.186 0.277-0.118 0.082-0.368 0.195-0.764 0.247-0.162 0.021-0.297 0.15-0.343 0.326-0.011 0.038-0.017 0.081-0.017 0.126 0 0.14 0.059 0.265 0.153 0.354l0 0zM9.756 26.002l0.014 0.084c0.048 0.292 0.15 0.56 0.292 0.793h-2.413c-1.948 0-3.532-1.615-3.532-3.601 0-0.003 0-0.007 0-0.011 0-1.34 0.729-2.51 1.813-3.134l0.018-0.009c0.126 0.105 0.282 0.195 0.467 0.268-0.074 0.14-0.125 0.291-0.137 0.449-0.016 0.209 0.041 0.409 0.161 0.56 0.159 0.2 0.402 0.302 0.724 0.302 0.428 0 0.991-0.19 1.504-0.509 0.118-0.073 0.23-0.15 0.335-0.231 0.104 0.081 0.217 0.159 0.335 0.231 0.513 0.319 1.075 0.509 1.504 0.509 0.321 0 0.565-0.102 0.724-0.302 0.12-0.152 0.177-0.351 0.161-0.56-0.016-0.167-0.064-0.319-0.139-0.455l0.003 0.006c0.185-0.073 0.341-0.163 0.466-0.268 0.87 0.5 1.504 1.329 1.734 2.313l0.005 0.024-2.869 1.221c-0.84 0.357-1.331 1.333-1.168 2.319zM24.692 26.452c-0.2 0.268-0.494 0.422-0.807 0.422h-0.426l-0.266-1.608c-0.041-0.247-0.253-0.41-0.473-0.364-0.221 0.046-0.366 0.283-0.325 0.53l0.239 1.443-1.396 0.001-0.18-1.088c-0.041-0.247-0.253-0.41-0.473-0.364s-0.366 0.283-0.325 0.53l0.153 0.923-3.247 0.001-0.244-1.477c-0.041-0.247-0.253-0.41-0.473-0.364s-0.366 0.283-0.325 0.529l0.217 1.313-4.74 0.002c-0.507 0-0.941-0.403-1.033-0.958l-0.014-0.084c-0.092-0.555 0.185-1.103 0.658-1.305l1.594-0.678 0.119 0.718c0.036 0.219 0.207 0.372 0.398 0.372 0.025 0 0.049-0.002 0.074-0.007 0.22-0.046 0.366-0.283 0.325-0.53l-0.146-0.88 2.367-1.007c0.209-0.089 0.315-0.352 0.235-0.586s-0.314-0.352-0.523-0.263l-1.101 0.469c-0.309-1.225-1.103-2.248-2.155-2.835-0.033-0.238-0.185-0.582-0.732-0.824-0.358-0.159-0.826-0.246-1.316-0.246-0.338 0-0.66 0.042-0.945 0.118v-0.275c0-0.251-0.181-0.454-0.405-0.454-0.097 0.001-0.185 0.038-0.251 0.098l0-0c-0.064-0.474-0.099-0.955-0.105-1.443h13.213c0.224 0 0.406-0.203 0.406-0.454s-0.182-0.454-0.406-0.454h-0.166c0.255-0.577 0.404-1.251 0.404-1.959 0-0.004 0-0.008 0-0.012v0.001c0-0.401-0.274-0.731-0.623-0.768 0.143-0.155 0.333-0.265 0.546-0.309l0.007-0.001c0.062-0.012 0.125-0.018 0.187-0.018 0.524 0 0.969 0.419 1.058 0.998 0.010 0.067 0.015 0.136 0.015 0.205 0 0.235 0.161 0.431 0.37 0.452 0.485 0.048 0.881 0.456 0.965 0.993 0.022 0.143 0.019 0.284-0.003 0.418h-0.435c-0.224 0-0.406 0.203-0.406 0.454s0.182 0.454 0.406 0.454h3.153c-0.010 0.869-0.113 1.708-0.3 2.516l0.015-0.079-2.198 1.454c-0.134-0.524-0.447-0.969-0.878-1.239-0.257-0.167-0.572-0.267-0.91-0.267-0.24 0-0.469 0.050-0.675 0.141l0.011-0.004-4.528 1.927c-0.209 0.089-0.315 0.352-0.235 0.586 0.079 0.235 0.314 0.353 0.523 0.264l0.596-0.254 0.185 1.12c0.036 0.219 0.207 0.372 0.399 0.372 0.025 0 0.049-0.002 0.074-0.007 0.221-0.046 0.366-0.283 0.325-0.53l-0.212-1.282 3.161-1.345c0.111-0.049 0.24-0.077 0.376-0.077 0.191 0 0.369 0.056 0.518 0.153l-0.004-0.002c0.273 0.171 0.461 0.465 0.518 0.807l0.821 4.962c0.012 0.064 0.018 0.138 0.018 0.214 0 0.28-0.091 0.539-0.246 0.749l0.002-0.003zM26.14 22.895c-0.189 0.039-0.328 0.222-0.332 0.437s0.128 0.404 0.315 0.453l3.020 0.775-0.075 0.567-3.501-0.705-0.547-3.309 3.049-2.017 0.254 0.504-2.572 1.925c-0.16 0.12-0.223 0.35-0.15 0.549s0.26 0.315 0.449 0.276l4.040-0.831 0.090 0.544-4.039 0.831z"></path>
</symbol>
<symbol id="Прочее" viewBox="0 0 34 32">
<path d="M34.457 22.821c-1.030-8.257-8.734-9.48-10.908-9.661v-7.498c0-0.052-0.073-5.169-6.318-5.169s-6.318 5.118-6.318 5.169v7.499c-2.174 0.18-9.876 1.403-10.908 9.66 0 0.012-0.004 0.057-0.004 0.071v2.297c0 0.318 0.257 0.575 0.574 0.575h2.872v1.148h-1.723c-0.317 0-0.574 0.257-0.574 0.574 0 0 0 0 0 0.001v-0c0 1.39 0.84 4.020 4.020 4.020s4.020-2.63 4.020-4.021c0-0.317-0.257-0.574-0.574-0.574v0h-1.723v-1.148h8.615v1.148h-1.723c-0.317 0-0.574 0.257-0.574 0.574 0 0 0 0 0 0.001v-0c0 1.39 0.84 4.020 4.020 4.020s4.020-2.63 4.020-4.021c0-0.317-0.257-0.574-0.574-0.574v0h-1.723v-1.148h8.615v1.148h-1.723c-0.317 0-0.574 0.257-0.574 0.574 0 0 0 0 0 0.001v-0c0 1.39 0.84 4.020 4.020 4.020s4.020-2.63 4.020-4.021c0-0.317-0.257-0.574-0.574-0.574v0h-1.723v-1.148h2.872c0.317 0 0.574-0.257 0.574-0.574 0-0 0-0 0-0.001v0-2.297c0-0.014 0-0.058-0.004-0.071zM12.062 5.662c0-0.164 0.057-4.021 5.169-4.021 5.076 0 5.169 3.858 5.169 4.021v7.466h-1.149v-3.446h-1.148v3.446h-8.041v-7.466zM6.663 15.391c1.417-0.638 3.065-1.041 4.798-1.113l0.027-0.001h11.487c1.76 0.073 3.408 0.475 4.909 1.148l-0.084-0.034c2.861 1.206 4.933 3.778 5.414 6.877l0.006 0.050h-31.976c0.487-3.149 2.56-5.721 5.362-6.905l0.059-0.022zM5.169 30.359c-0.059 0.005-0.128 0.007-0.198 0.007-1.339 0-2.444-0.999-2.612-2.291l-0.001-0.013h5.62c-0.177 1.307-1.285 2.304-2.626 2.304-0.064 0-0.128-0.002-0.191-0.007l0.008 0zM5.743 26.913h-1.148v-1.148h1.148v1.148zM17.231 30.359c-0.059 0.005-0.128 0.007-0.198 0.007-1.339 0-2.444-0.999-2.612-2.291l-0.001-0.013h5.62c-0.177 1.307-1.285 2.304-2.626 2.304-0.064 0-0.128-0.002-0.191-0.007l0.008 0zM17.805 26.913h-1.148v-1.148h1.148v1.148zM29.292 30.359c-0.060 0.005-0.13 0.008-0.201 0.008-1.339 0-2.444-0.999-2.612-2.292l-0.001-0.013h5.623c-0.177 1.307-1.285 2.304-2.626 2.304-0.064 0-0.128-0.002-0.191-0.007l0.008 0zM29.866 26.913h-1.148v-1.148h1.148v1.148zM33.313 24.615h-32.164v-1.149h32.164v1.149z"></path>
</symbol>
<symbol id="Развлечения" viewBox="0 0 29 32">
<path d="M28.701 15.724l-1.272-1.286v-12.227l1.069-1.080c0.097-0.098 0.157-0.234 0.157-0.383s-0.060-0.284-0.157-0.383l0 0c-0.097-0.098-0.231-0.159-0.379-0.159s-0.283 0.061-0.379 0.159l-0 0-1.069 1.079h-12.105l-1.271-1.286c-0.097-0.098-0.231-0.159-0.379-0.159s-0.283 0.061-0.379 0.159l-0 0c-0.097 0.099-0.157 0.234-0.157 0.383s0.060 0.285 0.157 0.384l-0-0 1.218 1.23-3.777 16.168c-0.209 0.262-0.335 0.597-0.335 0.962 0 0.158 0.024 0.311 0.068 0.455l-0.003-0.011c0.162 0.54 0.601 0.948 1.148 1.064l0.010 0.002 2.408 0.494c0.465 0.098 0.847 0.393 1.061 0.792l0.004 0.008c0.221 0.415 0.246 0.903 0.071 1.339-0.234 0.582-0.794 0.985-1.448 0.985-0.114 0-0.226-0.012-0.333-0.036l0.010 0.002-9.023-1.931c-1.358-0.291-2.728 0.489-3.186 1.813-0.099 0.275-0.156 0.593-0.156 0.924 0 0.512 0.137 0.993 0.376 1.407l-0.007-0.014c0.397 0.692 1.066 1.19 1.858 1.35l0.018 0.003 0.038 0.007c0.724 0.144 1.32 0.601 1.65 1.22l0.006 0.013c0.179 0.33 0.284 0.723 0.284 1.141 0 0.338-0.069 0.659-0.193 0.952l0.006-0.016c-0.027 0.062-0.042 0.134-0.042 0.21 0 0.223 0.134 0.414 0.326 0.498l0.003 0.001c0.061 0.026 0.132 0.041 0.206 0.041 0.222 0 0.413-0.135 0.495-0.328l0.001-0.004c0.172-0.4 0.271-0.866 0.271-1.355 0-0.605-0.152-1.174-0.421-1.671l0.009 0.019c-0.488-0.915-1.35-1.576-2.377-1.782l-0.022-0.004-0.038-0.007c-0.496-0.1-0.905-0.405-1.144-0.82l-0.004-0.008c-0.142-0.245-0.226-0.539-0.226-0.853 0-0.203 0.035-0.397 0.099-0.578l-0.004 0.012c0.236-0.672 0.865-1.146 1.605-1.146 0.123 0 0.242 0.013 0.357 0.038l-0.011-0.002 9.023 1.931c0.164 0.036 0.352 0.057 0.545 0.057 1.103 0 2.047-0.68 2.436-1.644l0.006-0.018c0.123-0.296 0.194-0.64 0.194-1.001 0-0.461-0.116-0.894-0.321-1.272l0.007 0.014c-0.367-0.687-1.012-1.185-1.781-1.347l-0.017-0.003-2.408-0.494c-0.166-0.033-0.297-0.155-0.343-0.313l-0.001-0.003c-0.013-0.040-0.020-0.086-0.020-0.134 0-0.081 0.021-0.156 0.057-0.222l-0.001 0.002 15.954-3.803 1.218 1.23c0.097 0.098 0.231 0.159 0.379 0.159s0.283-0.061 0.379-0.159l0-0c0.097-0.099 0.157-0.234 0.157-0.383s-0.060-0.285-0.157-0.383l0 0zM25.597 2.528l-4.978 5.030-4.979-5.030h9.957zM14.645 3.057l5.214 5.268-8.435 8.522 3.222-13.79zM12.183 17.613l8.435-8.522 5.214 5.267-13.649 3.254zM26.355 13.354l-4.979-5.030 4.979-5.030v10.059z"></path>
</symbol>
<symbol id="Спорт и хобби" viewBox="0 0 32 32">
<path d="M31.020 13.515h-1.907c-0.353 0-0.665 0.182-0.847 0.456-1.458-0.152-1.653-0.386-1.81-0.577-0.213-0.257-0.463-0.473-0.743-0.646l-0.013-0.007-4.383-2.662c-0.892-2.073-2.385-3.37-3.493-4.096-0.417-0.277-0.689-0.745-0.689-1.276 0-0.002 0-0.004 0-0.006v0c0-0.306 0.090-0.603 0.261-0.857l1.090-1.622c0.217-0.323 0.292-0.71 0.211-1.091-0.142-0.65-0.712-1.13-1.395-1.13h-5.178c-0 0-0.001 0-0.001 0-0.787 0-1.426 0.638-1.426 1.426 0 0.297 0.091 0.573 0.246 0.801l-0.003-0.005 1.090 1.622c0.171 0.254 0.261 0.551 0.261 0.857 0 0.52-0.257 0.999-0.689 1.282-1.642 1.077-5.31 4.25-3.923 10.451 0.774 3.459 1.371 5.897 1.731 7.071h-7.73c-0.638 0-1.195 0.453-1.325 1.077l-0.263 1.268c-0.083 0.401 0.017 0.813 0.274 1.13 0.249 0.306 0.626 0.499 1.048 0.499 0.001 0 0.002 0 0.003 0h26.594c0.001 0 0.002 0 0.003 0 0.422 0 0.798-0.194 1.046-0.497l0.002-0.002c0.189-0.23 0.304-0.528 0.304-0.853 0-0.098-0.011-0.194-0.030-0.287l0.002 0.009-0.264-1.269c-0.135-0.618-0.676-1.074-1.325-1.077h-7.729c0.107-0.351 0.237-0.818 0.387-1.396h0.509c0.001 0 0.001 0 0.002 0 1.569 0 3.082-0.242 4.503-0.692l-0.106 0.029 2.913-0.367c0.177 0.314 0.508 0.522 0.887 0.522h1.907c0.561-0 1.016-0.455 1.017-1.017v-6.054c0-0.56-0.456-1.017-1.017-1.017zM11.646 1.326c0.048-0.223 0.244-0.387 0.478-0.387 0 0 0.001 0 0.001 0h5.178c0 0 0.001 0 0.001 0 0.234 0 0.429 0.165 0.476 0.384l0.001 0.003c0.007 0.031 0.011 0.066 0.011 0.102 0 0.102-0.031 0.196-0.084 0.274l0.001-0.002-0.539 0.803h-4.912l-0.539-0.803c-0.052-0.076-0.083-0.17-0.083-0.271 0-0.036 0.004-0.072 0.012-0.106l-0.001 0.003zM12.117 6.768c0.674-0.446 1.113-1.202 1.113-2.059 0-0.003 0-0.005 0-0.008v0c0-0.447-0.12-0.88-0.347-1.262h3.663c-0.218 0.36-0.347 0.796-0.347 1.261 0 0 0 0 0 0.001v-0c0 0.837 0.416 1.609 1.113 2.066 0.287 0.189 0.603 0.419 0.926 0.695h-7.042c0.274-0.237 0.575-0.465 0.89-0.675l0.033-0.021zM28.154 24.775l0.264 1.268c0.006 0.026 0.009 0.056 0.009 0.087 0 0.099-0.035 0.191-0.094 0.262l0.001-0.001c-0.076 0.094-0.191 0.153-0.319 0.153-0.001 0-0.002 0-0.004 0h-26.594c-0.001 0-0.001 0-0.002 0-0.129 0-0.244-0.060-0.32-0.153l-0.001-0.001c-0.058-0.070-0.094-0.161-0.094-0.261 0-0.030 0.003-0.060 0.010-0.089l-0 0.003 0.264-1.269c0.040-0.191 0.211-0.33 0.407-0.33h26.066c0.196 0 0.367 0.139 0.407 0.331zM19.034 23.506h-8.64c-0.193-0.575-0.683-2.285-1.8-7.275-0.471-2.104-0.358-4.009 0.333-5.676h1.726c0.259 0 0.469-0.21 0.469-0.469s-0.21-0.469-0.469-0.469v0h-1.262c0.265-0.457 0.559-0.861 0.865-1.217h8.919c0.306 0.357 0.6 0.761 0.863 1.216h-7.507c-0.259 0-0.469 0.21-0.469 0.469s0.21 0.469 0.469 0.469v0h6.211c-0.070 0.167-0.111 0.361-0.111 0.565 0 0.128 0.016 0.252 0.046 0.371l-0.002-0.010c0.096 0.39 0.338 0.719 0.681 0.927l0.806 0.49h-5.21c-0.827 0-1.498 0.636-1.527 1.449-0.008 0.217 0.030 0.427 0.109 0.621h-0.481c-0.001 0-0.003 0-0.005 0-0.423 0-0.805 0.176-1.076 0.459l-0.001 0.001c-0.261 0.269-0.422 0.637-0.422 1.043 0 0.663 0.431 1.226 1.028 1.423l0.011 0.003c-0.091 0.188-0.144 0.409-0.144 0.642 0 0.83 0.672 1.503 1.502 1.505h0.71c-0.069 0.167-0.11 0.361-0.11 0.564 0 0.83 0.672 1.503 1.502 1.505h3.389c-0.197 0.746-0.324 1.163-0.402 1.396zM25.154 20.523c-0.030 0.004-0.058 0.010-0.084 0.018l0.003-0.001c-1.243 0.402-2.674 0.633-4.159 0.633-0 0-0.001 0-0.001 0h-4.866c-0.305-0.010-0.548-0.26-0.548-0.566s0.243-0.556 0.547-0.566l0.001-0h3.073c0.259 0 0.469-0.21 0.469-0.469s-0.21-0.469-0.469-0.469v0h-5.175c-0.299-0.017-0.536-0.264-0.536-0.566s0.236-0.549 0.534-0.566l0.002-0h5.175c0.259 0 0.469-0.21 0.469-0.469s-0.21-0.469-0.469-0.469v0h-6.043c-0.315 0-0.579-0.245-0.59-0.545-0-0.007-0-0.015-0-0.023 0-0.311 0.252-0.564 0.564-0.564 0.001 0 0.002 0 0.002 0h6.068c0.259 0 0.469-0.21 0.469-0.469s-0.21-0.469-0.469-0.469v0h-4.193c-0.001 0-0.001 0-0.002 0-0.159 0-0.303-0.066-0.405-0.173l-0-0c-0.098-0.101-0.159-0.24-0.159-0.392 0-0.008 0-0.016 0-0.023l-0 0.001c0.011-0.3 0.275-0.545 0.59-0.545h6.461c0.266 0 0.494-0.173 0.566-0.429 0.014-0.048 0.023-0.104 0.023-0.161 0-0.211-0.112-0.396-0.281-0.498l-0.003-0.001-1.876-1.139c-0.127-0.077-0.219-0.2-0.255-0.345l-0.001-0.004c-0.010-0.040-0.016-0.086-0.016-0.133 0-0.313 0.254-0.567 0.567-0.567 0.108 0 0.208 0.030 0.294 0.082l-0.003-0.001 4.786 2.907c0.197 0.12 0.372 0.271 0.52 0.45 0.383 0.463 0.875 0.741 2.362 0.903v5.255l-2.942 0.371zM31.099 20.586c0 0.044-0.035 0.079-0.079 0.079v0h-1.907c-0.043-0-0.079-0.035-0.079-0.079v-6.055c0-0.043 0.035-0.079 0.079-0.079h1.907c0.043 0 0.079 0.035 0.079 0.079v6.054zM22.477 30.488l-2.441-1.965c-0.080-0.065-0.182-0.104-0.294-0.104-0.259 0-0.469 0.21-0.469 0.469 0 0.147 0.068 0.279 0.174 0.365l0.001 0.001 2.249 1.808h-13.965l2.253-1.811c0.107-0.087 0.175-0.218 0.175-0.365 0-0.259-0.21-0.469-0.469-0.469-0.112 0-0.214 0.039-0.295 0.104l0.001-0.001-2.446 1.967c-0.195 0.155-0.32 0.393-0.32 0.66 0 0.102 0.018 0.2 0.052 0.291l-0.002-0.006c0.122 0.345 0.437 0.567 0.802 0.567h14.461c0.366 0 0.68-0.223 0.802-0.567 0.032-0.085 0.050-0.183 0.050-0.286 0-0.266-0.124-0.503-0.317-0.657l-0.002-0.001z"></path>
</symbol>
<symbol id="Техника" viewBox="0 0 32 32">
<path d="M21.709 9.697c-0.345 0-0.625 0.28-0.625 0.625s0.28 0.625 0.625 0.625v0c0.345 0 0.625-0.28 0.625-0.625s-0.28-0.625-0.625-0.625v0zM10.353 21.053c-0.345 0-0.625 0.28-0.625 0.625s0.28 0.625 0.625 0.625v0c0.345 0 0.625-0.28 0.625-0.625s-0.28-0.625-0.625-0.625v0z"></path>
<path d="M31.254 3.845c-0.043-0.010-0.091-0.016-0.142-0.016-0.173 0-0.33 0.071-0.444 0.185l-0 0-2.591 2.611h-1.242l-1.367-1.417v-1.259l2.554-2.592c0.111-0.113 0.18-0.268 0.18-0.439 0-0.274-0.176-0.506-0.421-0.591l-0.004-0.001c-0.593-0.206-1.277-0.326-1.989-0.326-0.003 0-0.005 0-0.008 0h0c-2.035 0-3.885 0.949-5.074 2.605-1.113 1.549-1.455 3.448-0.964 5.265l-4.604 4.604-7.67-7.687v-1.509c0-0.219-0.115-0.423-0.303-0.536l-4.419-2.652c-0.092-0.056-0.203-0.089-0.321-0.089-0.173 0-0.329 0.070-0.442 0.183v0l-1.768 1.767c-0.113 0.113-0.183 0.27-0.183 0.442 0 0.119 0.033 0.23 0.091 0.324l-0.002-0.003 2.651 4.419c0.113 0.189 0.317 0.303 0.536 0.303l1.509 0.001 7.67 7.687-4.586 4.586c-1.817-0.491-3.717-0.147-5.267 0.966-1.654 1.189-2.602 3.038-2.602 5.074 0 0.682 0.11 1.354 0.326 1.995 0.086 0.25 0.318 0.426 0.592 0.426 0.174 0 0.331-0.071 0.444-0.185l0-0 2.591-2.611h1.249l1.423 1.423v1.25l-2.611 2.591c-0.114 0.113-0.185 0.27-0.185 0.444 0 0.274 0.176 0.506 0.421 0.591l0.004 0.001c0.642 0.216 1.313 0.326 1.996 0.326 2.035 0 3.884-0.949 5.073-2.603 1.114-1.55 1.457-3.45 0.966-5.267l3.683-3.683 0.844 0.916-0.387 0.387c-0.109 0.112-0.177 0.266-0.177 0.436 0 0.345 0.28 0.625 0.625 0.625 0.17 0 0.323-0.067 0.436-0.177l0.351-0.351 7.934 8.618c0.679 0.679 1.616 1.099 2.652 1.099s1.973-0.42 2.652-1.099l0-0c0.677-0.679 1.096-1.617 1.096-2.652s-0.419-1.972-1.096-2.652l0 0-0.020-0.019-8.613-7.901 0.347-0.347c0.113-0.113 0.183-0.269 0.183-0.442 0-0.345-0.28-0.625-0.625-0.625-0.173 0-0.329 0.070-0.442 0.183v0l-0.385 0.385-0.918-0.843 3.701-3.701c0.526 0.141 1.069 0.211 1.619 0.211 3.446 0 6.25-2.803 6.25-6.249 0-0.683-0.11-1.354-0.326-1.996-0.069-0.206-0.24-0.36-0.451-0.409zM5.518 6.371c-0.112-0.11-0.265-0.177-0.434-0.177-0.003 0-0.006 0-0.009 0h-1.412l-2.219-3.705 1.077-1.078 3.697 2.219v1.414c0 0.166 0.066 0.324 0.183 0.441l7.854 7.871-0.884 0.884-7.853-7.87zM21.415 18.562l8.642 7.928c0.452 0.452 0.732 1.077 0.732 1.768 0 1.381-1.119 2.5-2.5 2.5-0.691 0-1.316-0.28-1.768-0.733v0l-7.941-8.627 2.837-2.837zM20.494 17.717l-2.762 2.762-0.844-0.917 2.688-2.688 0.918 0.843zM25.781 11.25c-0.002 0-0.003 0-0.005 0-0.57 0-1.117-0.095-1.627-0.271l0.035 0.011c-0.059-0.021-0.128-0.033-0.199-0.033-0.173 0-0.329 0.070-0.442 0.183v0l-12.37 12.371c-0.113 0.113-0.183 0.269-0.183 0.442 0 0.071 0.012 0.14 0.034 0.204l-0.001-0.004c0.52 1.543 0.271 3.189-0.682 4.515-0.907 1.266-2.374 2.082-4.031 2.082-0.009 0-0.019-0-0.028-0h0.001c-0.183 0-0.365-0.010-0.545-0.029l1.985-1.97c0.118-0.117 0.185-0.277 0.185-0.443v-1.768c0-0.166-0.066-0.325-0.183-0.442l-1.789-1.789c-0.113-0.113-0.269-0.183-0.442-0.183-0 0-0 0-0 0h-1.769c-0.166 0-0.326 0.066-0.443 0.185l-1.97 1.985c-0.019-0.163-0.029-0.351-0.029-0.542 0-0.001 0-0.002 0-0.003v0c-0-0.008-0-0.018-0-0.027 0-1.657 0.815-3.123 2.067-4.020l0.015-0.010c1.327-0.953 2.973-1.202 4.515-0.682 0.225 0.076 0.474 0.018 0.642-0.15l12.371-12.371c0.168-0.168 0.226-0.416 0.15-0.641-0.52-1.543-0.272-3.188 0.681-4.514 0.907-1.267 2.374-2.083 4.032-2.083 0.009 0 0.019 0 0.028 0h-0.001c0.189 0 0.376 0.010 0.562 0.031l-1.944 1.973c-0.115 0.117-0.179 0.274-0.179 0.439v1.768c0 0.162 0.063 0.318 0.175 0.434l1.727 1.789c0.118 0.123 0.28 0.191 0.45 0.191h1.768c0.167 0 0.326-0.066 0.444-0.185l1.969-1.985c0.019 0.18 0.029 0.362 0.029 0.545 0 2.757-2.243 5-5 5z"></path>
<path d="M19.499 11.647l-7.821 7.822c-0.109 0.112-0.177 0.266-0.177 0.436 0 0.345 0.28 0.625 0.625 0.625 0.17 0 0.323-0.067 0.436-0.177l7.821-7.821c0.113-0.113 0.183-0.269 0.183-0.442 0-0.345-0.28-0.625-0.625-0.625-0.173 0-0.329 0.070-0.442 0.183v0zM27.397 28.25c0.113 0.113 0.269 0.182 0.441 0.182 0.345 0 0.625-0.28 0.625-0.625 0-0.173-0.070-0.33-0.184-0.443l-5.634-5.615c-0.112-0.109-0.266-0.176-0.435-0.176-0.345 0-0.625 0.28-0.625 0.625 0 0.17 0.068 0.324 0.178 0.437l-0-0 5.634 5.615z"></path>
</symbol>
<symbol id="Транспорт" viewBox="0 0 29 32">
<path d="M27.234 12.821l-0.614-0.739-2.157-6.598c-0.367-1.114-1.307-1.853-2.355-1.86h-15.402c-1.048 0-1.988 0.745-2.355 1.86l-2.126 6.516-0.886 0.93c-0.771 0.746-1.217 1.84-1.217 2.989v9.613c0.006 1.573 1.133 2.845 2.518 2.845h1.59c1.386 0 2.512-1.272 2.518-2.845v-1.394h14.938v1.394c0.006 1.573 1.133 2.845 2.518 2.845h1.59c1.386 0 2.512-1.272 2.518-2.845v-9.866c-0.006-1.074-0.392-2.099-1.078-2.845zM5.484 5.949c0.193-0.581 0.681-0.957 1.223-0.957h15.407c0.542 0 1.030 0.383 1.223 0.957l1.879 5.744h-1.403c-0.331-2.565-2.433-4.335-4.692-3.953-1.801 0.301-3.217 1.908-3.482 3.953h-12.035l1.88-5.744zM22.585 11.693h-5.729c0.331-1.799 1.886-2.947 3.47-2.571 1.133 0.274 2.018 1.279 2.259 2.571zM5.543 25.531c-0.006 0.821-0.59 1.477-1.313 1.477h-1.589c-0.723 0-1.307-0.657-1.313-1.477v-1.791c0.361 0.267 0.837 0.397 1.313 0.397h2.902v1.395zM27.107 25.531c-0.006 0.821-0.59 1.477-1.313 1.477h-1.589c-0.723 0-1.307-0.663-1.314-1.477v-1.394h2.903c0.476 0 0.952-0.13 1.313-0.397v1.791zM25.794 22.769h-23.154c-0.717 0.007-1.307-0.643-1.313-1.463v-5.389c0-0.752 0.295-1.47 0.801-1.955l0.024-0.027 0.819-0.875h22.811l0.578 0.704c0.006 0.014 0.024 0.021 0.030 0.034 0.451 0.486 0.711 1.162 0.711 1.867v5.641h0.006c-0.006 0.814-0.596 1.47-1.313 1.463z"></path>
<path d="M8.074 15.795h-4.518c-0.331 0-0.602 0.308-0.602 0.684v3.555c0 0.376 0.271 0.684 0.602 0.684h4.518c0.331 0 0.602-0.308 0.602-0.684v-3.555c0-0.376-0.271-0.684-0.602-0.684zM7.471 19.35h-3.313v-2.188h3.313v2.189zM24.88 15.795h-4.518c-0.331 0-0.602 0.308-0.602 0.684v3.555c0 0.376 0.271 0.684 0.602 0.684h4.518c0.331 0 0.602-0.308 0.602-0.684v-3.555c0-0.376-0.271-0.684-0.602-0.684zM24.277 19.35h-3.313v-2.188h3.313v2.189zM17.127 18.666h-5.819c-0.331 0-0.603 0.308-0.603 0.684s0.271 0.684 0.603 0.684h5.819c0.331 0 0.602-0.308 0.602-0.684s-0.271-0.684-0.603-0.684zM17.127 16.547h-5.819c-0.331 0-0.603 0.307-0.603 0.684s0.271 0.683 0.603 0.683h5.819c0.331 0 0.602-0.307 0.602-0.683s-0.271-0.684-0.603-0.684z"></path>
</symbol>
</defs>
</svg>
